<svg width="18" height="22" viewBox="0 0 18 22" fill="none" xmlns="http://www.w3.org/2000/svg">
<path d="M7.30966 7.72727V15H6.42898V8.65057H6.38636L4.6108 9.82955V8.93466L6.42898 7.72727H7.30966ZM11.7734 15.0994C11.2384 15.0994 10.7827 14.9538 10.4062 14.6626C10.0298 14.3691 9.74219 13.9441 9.54332 13.3878C9.34446 12.8291 9.24503 12.1544 9.24503 11.3636C9.24503 10.5777 9.34446 9.90649 9.54332 9.35014C9.74455 8.79143 10.0334 8.36529 10.4098 8.07173C10.7886 7.7758 11.2431 7.62784 11.7734 7.62784C12.3037 7.62784 12.7571 7.7758 13.1335 8.07173C13.5123 8.36529 13.8011 8.79143 14 9.35014C14.2012 9.90649 14.3018 10.5777 14.3018 11.3636C14.3018 12.1544 14.2024 12.8291 14.0036 13.3878C13.8047 13.9441 13.517 14.3691 13.1406 14.6626C12.7642 14.9538 12.3085 15.0994 11.7734 15.0994ZM11.7734 14.3182C12.3037 14.3182 12.7157 14.0625 13.0092 13.5511C13.3028 13.0398 13.4496 12.3106 13.4496 11.3636C13.4496 10.7339 13.3821 10.1977 13.2472 9.75497C13.1146 9.31226 12.9228 8.97491 12.6719 8.7429C12.4233 8.51089 12.1238 8.39489 11.7734 8.39489C11.2479 8.39489 10.8371 8.65412 10.5412 9.17259C10.2453 9.68868 10.0973 10.419 10.0973 11.3636C10.0973 11.9934 10.1636 12.5284 10.2962 12.9688C10.4287 13.4091 10.6193 13.7441 10.8679 13.9737C11.1188 14.2034 11.4207 14.3182 11.7734 14.3182Z" fill="black"/>
<path d="M17.4995 5.09866C17.4878 5.37455 17.2545 5.58864 16.9786 5.57685L12.4828 5.38467C12.2069 5.37288 11.9928 5.13967 12.0046 4.86378C12.0164 4.58789 12.2496 4.37379 12.5255 4.38559L16.5218 4.55641L16.6926 0.560056C16.7044 0.284165 16.9376 0.0700719 17.2135 0.0818646C17.4894 0.0936572 17.7035 0.326871 17.6917 0.602761L17.4995 5.09866ZM1 11.5C1 16.4706 5.02944 20.5 10 20.5V21.5C4.47715 21.5 0 17.0228 0 11.5H1ZM10 2.5C5.02944 2.5 1 6.52944 1 11.5H0C0 5.97715 4.47715 1.5 10 1.5V2.5ZM16.6317 5.41544C14.9859 3.62266 12.6244 2.5 10 2.5V1.5C12.916 1.5 15.5411 2.74876 17.3683 4.73917L16.6317 5.41544Z" fill="black"/>
</svg>
