<svg width="18" height="22" viewBox="0 0 18 22" fill="none" xmlns="http://www.w3.org/2000/svg">
<path d="M6.30966 7.72727V15H5.42898V8.65057H5.38636L3.6108 9.82955V8.93466L5.42898 7.72727H6.30966ZM10.7734 15.0994C10.2384 15.0994 9.78267 14.9538 9.40625 14.6626C9.02983 14.3691 8.74219 13.9441 8.54332 13.3878C8.34446 12.8291 8.24503 12.1544 8.24503 11.3636C8.24503 10.5777 8.34446 9.90649 8.54332 9.35014C8.74455 8.79143 9.03338 8.36529 9.4098 8.07173C9.78859 7.7758 10.2431 7.62784 10.7734 7.62784C11.3037 7.62784 11.7571 7.7758 12.1335 8.07173C12.5123 8.36529 12.8011 8.79143 13 9.35014C13.2012 9.90649 13.3018 10.5777 13.3018 11.3636C13.3018 12.1544 13.2024 12.8291 13.0036 13.3878C12.8047 13.9441 12.517 14.3691 12.1406 14.6626C11.7642 14.9538 11.3085 15.0994 10.7734 15.0994ZM10.7734 14.3182C11.3037 14.3182 11.7157 14.0625 12.0092 13.5511C12.3028 13.0398 12.4496 12.3106 12.4496 11.3636C12.4496 10.7339 12.3821 10.1977 12.2472 9.75497C12.1146 9.31226 11.9228 8.97491 11.6719 8.7429C11.4233 8.51089 11.1238 8.39489 10.7734 8.39489C10.2479 8.39489 9.83712 8.65412 9.54119 9.17259C9.24527 9.68868 9.0973 10.419 9.0973 11.3636C9.0973 11.9934 9.16359 12.5284 9.29616 12.9688C9.42874 13.4091 9.61932 13.7441 9.8679 13.9737C10.1188 14.2034 10.4207 14.3182 10.7734 14.3182Z" fill="black"/>
<path d="M0.500456 5.09866C0.512249 5.37455 0.745462 5.58864 1.02135 5.57685L5.51725 5.38467C5.79314 5.37288 6.00723 5.13967 5.99544 4.86378C5.98365 4.58789 5.75043 4.37379 5.47454 4.38559L1.47819 4.55641L1.30737 0.560056C1.29558 0.284165 1.06236 0.0700719 0.786475 0.0818646C0.510584 0.0936572 0.296491 0.326871 0.308283 0.602761L0.500456 5.09866ZM17 11.5C17 16.4706 12.9706 20.5 8 20.5V21.5C13.5228 21.5 18 17.0228 18 11.5H17ZM8 2.5C12.9706 2.5 17 6.52944 17 11.5H18C18 5.97715 13.5228 1.5 8 1.5V2.5ZM1.36833 5.41544C3.01413 3.62266 5.37559 2.5 8 2.5V1.5C5.08398 1.5 2.4589 2.74876 0.631671 4.73917L1.36833 5.41544Z" fill="black"/>
</svg>
